<svg xmlns="http://www.w3.org/2000/svg" width="1024" height="1024" viewBox="0 0 1024 1024" version="1.1"><path d="M 492.329 132.458 C 490.585 133.216, 488.672 134.744, 488.079 135.853 C 487.382 137.155, 487 147.623, 487 165.415 L 487 192.962 484.750 193.460 C 483.512 193.734, 478.701 194.649, 474.058 195.494 C 420.313 205.276, 376.471 235.553, 353.141 279 C 344.310 295.446, 340 314.633, 340 337.500 C 340 360.894, 343.898 377.408, 353.967 396.665 C 361.320 410.728, 367.551 419.376, 378.775 431.095 C 399.529 452.766, 414.114 462.308, 492.500 505.499 C 554.185 539.487, 583.316 558.110, 602.131 575.584 C 620.394 592.544, 632.149 610.318, 637.172 628.567 C 639.964 638.710, 640.262 660.843, 637.744 671 C 633.661 687.471, 625.848 700.853, 611.641 715.714 C 599.841 728.057, 591.995 733.872, 577.500 741.018 C 556.169 751.534, 537.567 755.304, 507 755.306 C 484.691 755.308, 469.753 753.034, 451.500 746.856 C 415.060 734.522, 392.014 714.145, 381.896 685.313 C 379.361 678.089, 378.358 662.700, 379.890 654.541 C 381.646 645.192, 390.022 632.903, 400.052 624.959 L 403.985 621.844 411.243 628.448 C 421.627 637.898, 442.834 652.447, 454.500 658.125 C 465.394 663.427, 475.546 666.288, 489.500 667.989 C 502.777 669.606, 502.752 669.596, 509.745 676.305 C 517.241 683.497, 520.447 688.519, 521.999 695.500 C 524.497 706.733, 528.403 707.866, 536.337 699.659 C 542.972 692.796, 547.223 685.591, 551.220 674.437 C 554.188 666.155, 554.425 664.548, 554.461 652.500 C 554.494 641.504, 554.144 638.436, 552.188 632.598 C 544.799 610.542, 528.072 588.945, 510.342 578.566 C 487.181 565.008, 454.891 560.850, 423.313 567.360 L 417.127 568.635 412.669 558.516 C 403.675 538.096, 400.710 524.328, 401.899 508.500 C 403.073 492.866, 402.438 472.854, 400.613 468.014 C 398.539 462.511, 394.384 458, 391.390 458 C 384.204 458, 374.476 476.254, 368.800 500.389 C 367.036 507.891, 366.652 512.678, 366.626 527.500 C 366.591 548.116, 367.587 553.108, 375.594 572.457 C 378.107 578.531, 380.361 584.175, 380.601 585 C 380.887 585.983, 379.247 587.534, 375.841 589.500 C 368.667 593.642, 356.433 605.932, 350.048 615.413 C 339.829 630.587, 335.322 643.415, 334.302 660.232 C 333.200 678.392, 336.992 695.972, 345.911 714.057 C 352.579 727.580, 358.705 735.810, 371.948 749.041 C 399.003 776.071, 434.589 792.739, 474.641 797.141 L 485.782 798.366 486.436 825.933 C 486.795 841.095, 487.310 854.542, 487.580 855.816 C 488.428 859.813, 493.332 861, 509 861 C 524.027 861, 528.901 859.922, 530.920 856.150 C 531.619 854.844, 532 844.400, 532 826.566 L 532 799 535.493 799 C 537.415 799, 544.929 797.841, 552.192 796.425 C 590.874 788.883, 623.537 771.760, 645.920 747.290 C 665.171 726.245, 678.356 700.967, 682.446 677.265 C 689.967 633.674, 679.589 596.620, 650.073 561.682 C 631.240 539.389, 592.150 511.659, 542 485.017 C 465.110 444.170, 425.129 418.902, 407.948 400.295 C 401.477 393.287, 393.859 382.136, 390.523 374.788 C 380.800 353.371, 381.857 324.536, 393.160 302.810 C 409.486 271.429, 446.195 246.995, 486.619 240.601 C 498.331 238.748, 523.006 238.475, 534.678 240.068 C 553.408 242.624, 577.642 249.783, 592 257.002 C 611.266 266.687, 625.916 282.776, 633.270 302.326 C 635.905 309.332, 636.384 312.071, 636.623 321.500 C 637.114 340.839, 633.393 350.030, 619.681 363.355 C 613.098 369.753, 612.537 370.087, 611.278 368.355 C 608.034 363.893, 598.926 355.263, 592.150 350.232 C 577.022 338.997, 558.281 330.708, 541.525 327.839 C 533.288 326.429, 529.581 325.289, 526.671 323.272 C 521.653 319.795, 515.281 310.356, 512.053 301.621 C 509.146 293.756, 505.703 290.356, 501.669 291.368 C 497.313 292.462, 488.526 301.468, 484.736 308.725 C 479.164 319.393, 476.919 327.983, 476.300 341 C 475.565 356.460, 477.470 366.516, 483.404 378.500 C 491.701 395.253, 505.081 408.445, 522.500 417.043 C 538.518 424.950, 547.763 427.243, 565 427.587 C 577.242 427.831, 581.291 427.500, 591 425.461 C 597.325 424.133, 602.790 423.036, 603.144 423.023 C 604.183 422.986, 608.719 435.076, 611.064 444.132 C 613.771 454.592, 614.627 471.521, 613.053 483.500 C 610.090 506.041, 610.364 510.210, 615.115 514.961 C 617.380 517.226, 619.075 518, 621.770 518 C 624.833 518, 626.187 517.174, 630.616 512.601 C 641.751 501.105, 648.333 480.892, 648.922 456.384 C 649.227 443.685, 644.852 423.783, 639.118 411.783 L 636.386 406.067 641.723 402.391 C 652.780 394.776, 666.396 378.233, 673.732 363.500 C 688.780 333.283, 685.225 297.021, 664.069 264.926 C 639.716 227.983, 592.878 200.692, 542.250 193.948 L 533 192.716 533 165.292 C 533 147.560, 532.618 137.155, 531.920 135.850 C 529.885 132.048, 525.049 130.997, 509.782 131.039 C 499.917 131.066, 494.519 131.505, 492.329 132.458 M 525.072 368.135 C 529.562 374.503, 537.477 381.328, 543.808 384.291 C 548.860 386.655, 551.920 387.352, 558.826 387.711 C 563.597 387.959, 569.299 387.768, 571.498 387.287 L 575.496 386.411 569.498 382.343 C 557.808 374.412, 542.181 367.830, 532 366.548 C 528.975 366.167, 525.645 365.611, 524.600 365.313 C 522.884 364.823, 522.930 365.096, 525.072 368.135 M 444 603.916 C 444 604.420, 446.666 607.245, 449.924 610.193 C 456.800 616.416, 466.939 621.706, 479.071 625.401 C 487.872 628.082, 507 631.233, 507 630.002 C 507 629.624, 504.786 626.160, 502.079 622.307 C 494.438 611.425, 485.272 606.286, 469.500 604.037 C 460.679 602.780, 444 602.701, 444 603.916" stroke="none" fill="#ee6814" fill-rule="evenodd"/><path d="M 0 512.001 L 0 1024.002 512.250 1023.751 L 1024.500 1023.500 1024.751 511.750 L 1025.002 0 512.501 0 L 0 0 0 512.001 M 0.496 512.500 C 0.496 794.100, 0.610 909.151, 0.750 768.168 C 0.890 627.186, 0.890 396.786, 0.750 256.168 C 0.610 115.551, 0.496 230.900, 0.496 512.500 M 492.329 132.458 C 490.585 133.216, 488.672 134.744, 488.079 135.853 C 487.382 137.155, 487 147.623, 487 165.415 L 487 192.962 484.750 193.460 C 483.512 193.734, 478.701 194.649, 474.058 195.494 C 420.313 205.276, 376.471 235.553, 353.141 279 C 344.310 295.446, 340 314.633, 340 337.500 C 340 360.894, 343.898 377.408, 353.967 396.665 C 361.320 410.728, 367.551 419.376, 378.775 431.095 C 399.529 452.766, 414.114 462.308, 492.500 505.499 C 554.185 539.487, 583.316 558.110, 602.131 575.584 C 620.394 592.544, 632.149 610.318, 637.172 628.567 C 639.964 638.710, 640.262 660.843, 637.744 671 C 633.661 687.471, 625.848 700.853, 611.641 715.714 C 599.841 728.057, 591.995 733.872, 577.500 741.018 C 556.169 751.534, 537.567 755.304, 507 755.306 C 484.691 755.308, 469.753 753.034, 451.500 746.856 C 415.060 734.522, 392.014 714.145, 381.896 685.313 C 379.361 678.089, 378.358 662.700, 379.890 654.541 C 381.646 645.192, 390.022 632.903, 400.052 624.959 L 403.985 621.844 411.243 628.448 C 421.627 637.898, 442.834 652.447, 454.500 658.125 C 465.394 663.427, 475.546 666.288, 489.500 667.989 C 502.777 669.606, 502.752 669.596, 509.745 676.305 C 517.241 683.497, 520.447 688.519, 521.999 695.500 C 524.497 706.733, 528.403 707.866, 536.337 699.659 C 542.972 692.796, 547.223 685.591, 551.220 674.437 C 554.188 666.155, 554.425 664.548, 554.461 652.500 C 554.494 641.504, 554.144 638.436, 552.188 632.598 C 544.799 610.542, 528.072 588.945, 510.342 578.566 C 487.181 565.008, 454.891 560.850, 423.313 567.360 L 417.127 568.635 412.669 558.516 C 403.675 538.096, 400.710 524.328, 401.899 508.500 C 403.073 492.866, 402.438 472.854, 400.613 468.014 C 398.539 462.511, 394.384 458, 391.390 458 C 384.204 458, 374.476 476.254, 368.800 500.389 C 367.036 507.891, 366.652 512.678, 366.626 527.500 C 366.591 548.116, 367.587 553.108, 375.594 572.457 C 378.107 578.531, 380.361 584.175, 380.601 585 C 380.887 585.983, 379.247 587.534, 375.841 589.500 C 368.667 593.642, 356.433 605.932, 350.048 615.413 C 339.829 630.587, 335.322 643.415, 334.302 660.232 C 333.200 678.392, 336.992 695.972, 345.911 714.057 C 352.579 727.580, 358.705 735.810, 371.948 749.041 C 399.003 776.071, 434.589 792.739, 474.641 797.141 L 485.782 798.366 486.436 825.933 C 486.795 841.095, 487.310 854.542, 487.580 855.816 C 488.428 859.813, 493.332 861, 509 861 C 524.027 861, 528.901 859.922, 530.920 856.150 C 531.619 854.844, 532 844.400, 532 826.566 L 532 799 535.493 799 C 537.415 799, 544.929 797.841, 552.192 796.425 C 590.874 788.883, 623.537 771.760, 645.920 747.290 C 665.171 726.245, 678.356 700.967, 682.446 677.265 C 689.967 633.674, 679.589 596.620, 650.073 561.682 C 631.240 539.389, 592.150 511.659, 542 485.017 C 465.110 444.170, 425.129 418.902, 407.948 400.295 C 401.477 393.287, 393.859 382.136, 390.523 374.788 C 380.800 353.371, 381.857 324.536, 393.160 302.810 C 409.486 271.429, 446.195 246.995, 486.619 240.601 C 498.331 238.748, 523.006 238.475, 534.678 240.068 C 553.408 242.624, 577.642 249.783, 592 257.002 C 611.266 266.687, 625.916 282.776, 633.270 302.326 C 635.905 309.332, 636.384 312.071, 636.623 321.500 C 637.114 340.839, 633.393 350.030, 619.681 363.355 C 613.098 369.753, 612.537 370.087, 611.278 368.355 C 608.034 363.893, 598.926 355.263, 592.150 350.232 C 577.022 338.997, 558.281 330.708, 541.525 327.839 C 533.288 326.429, 529.581 325.289, 526.671 323.272 C 521.653 319.795, 515.281 310.356, 512.053 301.621 C 509.146 293.756, 505.703 290.356, 501.669 291.368 C 497.313 292.462, 488.526 301.468, 484.736 308.725 C 479.164 319.393, 476.919 327.983, 476.300 341 C 475.565 356.460, 477.470 366.516, 483.404 378.500 C 491.701 395.253, 505.081 408.445, 522.500 417.043 C 538.518 424.950, 547.763 427.243, 565 427.587 C 577.242 427.831, 581.291 427.500, 591 425.461 C 597.325 424.133, 602.790 423.036, 603.144 423.023 C 604.183 422.986, 608.719 435.076, 611.064 444.132 C 613.771 454.592, 614.627 471.521, 613.053 483.500 C 610.090 506.041, 610.364 510.210, 615.115 514.961 C 617.380 517.226, 619.075 518, 621.770 518 C 624.833 518, 626.187 517.174, 630.616 512.601 C 641.751 501.105, 648.333 480.892, 648.922 456.384 C 649.227 443.685, 644.852 423.783, 639.118 411.783 L 636.386 406.067 641.723 402.391 C 652.780 394.776, 666.396 378.233, 673.732 363.500 C 688.780 333.283, 685.225 297.021, 664.069 264.926 C 639.716 227.983, 592.878 200.692, 542.250 193.948 L 533 192.716 533 165.292 C 533 147.560, 532.618 137.155, 531.920 135.850 C 529.885 132.048, 525.049 130.997, 509.782 131.039 C 499.917 131.066, 494.519 131.505, 492.329 132.458 M 525.072 368.135 C 529.562 374.503, 537.477 381.328, 543.808 384.291 C 548.860 386.655, 551.920 387.352, 558.826 387.711 C 563.597 387.959, 569.299 387.768, 571.498 387.287 L 575.496 386.411 569.498 382.343 C 557.808 374.412, 542.181 367.830, 532 366.548 C 528.975 366.167, 525.645 365.611, 524.600 365.313 C 522.884 364.823, 522.930 365.096, 525.072 368.135 M 444 603.916 C 444 604.420, 446.666 607.245, 449.924 610.193 C 456.800 616.416, 466.939 621.706, 479.071 625.401 C 487.872 628.082, 507 631.233, 507 630.002 C 507 629.624, 504.786 626.160, 502.079 622.307 C 494.438 611.425, 485.272 606.286, 469.500 604.037 C 460.679 602.780, 444 602.701, 444 603.916" stroke="none" fill="#fbfbfb" fill-rule="evenodd"/></svg>